<svg xmlns="http://www.w3.org/2000/svg" viewBox="0 0 400 400" role="img" aria-label="A funny 'Population 169' road sign with one extra confused tourist standing next to it nudging the count to 170">
  <defs>
    <linearGradient id="ag3bg" x1="0" y1="0" x2="0" y2="1">
      <stop offset="0" stop-color="#9fd4e6"/>
      <stop offset="1" stop-color="#cfeee0"/>
    </linearGradient>
  </defs>
  <rect width="400" height="400" fill="url(#ag3bg)"/>
  <!-- green hills -->
  <ellipse cx="100" cy="360" rx="180" ry="90" fill="#6fb04e"/>
  <ellipse cx="330" cy="380" rx="160" ry="90" fill="#5a9442"/>
  <rect x="0" y="350" width="400" height="50" fill="#4f7e3a"/>
  <!-- sun -->
  <circle cx="330" cy="70" r="34" fill="#ffe07a"/>
  <!-- sign post -->
  <rect x="120" y="170" width="14" height="190" fill="#7a7a72"/>
  <!-- sign board -->
  <rect x="44" y="90" width="170" height="100" rx="10" fill="#1f7a3a" stroke="#ffffff" stroke-width="6"/>
  <text x="129" y="124" font-family="sans-serif" font-size="22" font-weight="bold" fill="#ffffff" text-anchor="middle">POPULATION</text>
  <!-- 169 struck, 170 added -->
  <text x="100" y="172" font-family="sans-serif" font-size="34" font-weight="bold" fill="#ffffff" text-anchor="middle">169</text>
  <line x1="74" y1="160" x2="128" y2="160" stroke="#ff6b6b" stroke-width="4"/>
  <text x="172" y="172" font-family="sans-serif" font-size="30" font-weight="bold" fill="#ffe07a" text-anchor="middle">170</text>
  <!-- confused tourist -->
  <g>
    <!-- body -->
    <rect x="262" y="250" width="44" height="70" rx="14" fill="#e2453f"/>
    <!-- legs -->
    <rect x="270" y="318" width="12" height="38" fill="#3a4a6a"/>
    <rect x="288" y="318" width="12" height="38" fill="#3a4a6a"/>
    <!-- pointing arm at sign -->
    <path d="M266 270 q-30 -2 -42 -18" fill="none" stroke="#e2453f" stroke-width="14" stroke-linecap="round"/>
    <!-- scratching-head arm -->
    <path d="M302 260 q22 -6 24 -28" fill="none" stroke="#e2453f" stroke-width="14" stroke-linecap="round"/>
    <!-- head -->
    <circle cx="284" cy="222" r="28" fill="#f3cda3"/>
    <path d="M258 218 q26 -40 52 0 q-4 -28 -26 -28 q-22 0 -26 28z" fill="#5a3c28"/>
    <!-- confused face -->
    <circle cx="276" cy="220" r="3.5" fill="#222"/>
    <circle cx="292" cy="220" r="3.5" fill="#222"/>
    <path d="M276 234 q8 -6 14 0" fill="none" stroke="#222" stroke-width="2.5" stroke-linecap="round"/>
    <!-- question mark -->
    <text x="318" y="200" font-family="sans-serif" font-size="34" font-weight="bold" fill="#444">?</text>
    <!-- suitcase -->
    <rect x="318" y="300" width="40" height="50" rx="5" fill="#c97a3a"/>
    <rect x="332" y="292" width="12" height="10" rx="3" fill="#a85f28"/>
  </g>
</svg>
