<svg xmlns="http://www.w3.org/2000/svg" viewBox="0 0 400 400" role="img" aria-label="The garden's autumn alter-ego: an arched tunnel of red and orange maple leaves">
  <defs>
    <radialGradient id="tun3" cx="50%" cy="55%" r="60%">
      <stop offset="0%" stop-color="#fff2cf"/>
      <stop offset="100%" stop-color="#e8a23c"/>
    </radialGradient>
  </defs>
  <rect width="400" height="400" fill="#c25a28"/>
  <!-- tunnel opening / light at end -->
  <ellipse cx="200" cy="230" rx="120" ry="170" fill="url(#tun3)"/>
  <ellipse cx="200" cy="240" rx="70" ry="110" fill="#fff6df"/>
  <!-- path -->
  <polygon points="160,400 240,400 215,260 185,260" fill="#caa15e"/>
  <!-- arch of maple leaves framing -->
  <g>
    <g fill="#c0341f"><!-- left side leaves -->
      <polygon points="30,40 50,20 60,40 78,30 70,50 88,55 70,62 80,82 60,70 52,90 44,68 26,76 38,58 22,50"/>
      <polygon points="20,150 40,132 50,150 66,140 60,158 78,164 60,170 70,188 50,176 42,196 36,174 18,182 30,162 16,154"/>
    </g>
    <g fill="#e8671f">
      <polygon points="60,90 78,74 86,90 102,82 96,98 112,104 96,110 104,126 86,116 78,134 72,114 56,122 66,104 52,96"/>
      <polygon points="50,260 68,244 76,260 92,252 86,268 102,274 86,280 94,296 76,286 68,304 62,284 46,292 56,274 42,266"/>
    </g>
    <g fill="#c0341f"><!-- right side -->
      <polygon points="340,40 360,20 370,40 388,30 380,50 398,55 380,62 390,82 370,70 362,90 354,68 336,76 348,58 332,50"/>
      <polygon points="330,150 350,132 360,150 376,140 370,158 388,164 370,170 380,188 360,176 352,196 346,174 328,182 340,162 326,154"/>
    </g>
    <g fill="#e8671f">
      <polygon points="300,90 318,74 326,90 342,82 336,98 352,104 336,110 344,126 326,116 318,134 312,114 296,122 306,104 292,96"/>
      <polygon points="310,260 328,244 336,260 352,252 346,268 362,274 346,280 354,296 336,286 328,304 322,284 306,292 316,274 302,266"/>
    </g>
    <g fill="#f0a020"><!-- top -->
      <polygon points="140,30 158,14 166,30 182,22 176,38 192,44 176,50 184,66 166,56 158,74 152,54 136,62 146,44 132,36"/>
      <polygon points="230,30 248,14 256,30 272,22 266,38 282,44 266,50 274,66 256,56 248,74 242,54 226,62 236,44 222,36"/>
    </g>
  </g>
</svg>
