<svg xmlns="http://www.w3.org/2000/svg" viewBox="0 0 400 400" role="img" aria-label="Mon-chan and Cinnamon the squirrel among the glowing terraced rice paddies at dusk">
<defs>
<linearGradient id="fur" x1="0" y1="0" x2="0" y2="1"><stop offset="0" stop-color="#e3a85c"/><stop offset="1" stop-color="#cf9038"/></linearGradient>
<linearGradient id="sky" x1="0" y1="0" x2="0" y2="1"><stop offset="0" stop-color="#3a2a5a"/><stop offset="0.6" stop-color="#a85a7a"/><stop offset="1" stop-color="#f0a070"/></linearGradient>
<linearGradient id="sq" x1="0" y1="0" x2="0" y2="1"><stop offset="0" stop-color="#9c7c55"/><stop offset="1" stop-color="#7d6242"/></linearGradient>
<linearGradient id="tl" x1="0" y1="0" x2="1" y2="0"><stop offset="0" stop-color="#8a6c49"/><stop offset="1" stop-color="#6b5236"/></linearGradient>
</defs>
<rect width="400" height="400" fill="url(#sky)"/>
<circle cx="200" cy="110" r="34" fill="#ffd9a0" opacity="0.85"/>
<!-- terraced paddies reflecting -->
<g>
<path d="M0 230 q200 -30 400 0 v18 q-200 -28 -400 0z" fill="#6a4a6a"/>
<path d="M0 258 q200 -34 400 0 v22 q-200 -30 -400 0z" fill="#7a5a78"/>
<path d="M0 290 q200 -36 400 0 v26 q-200 -32 -400 0z" fill="#8a5a6a"/>
<path d="M0 326 q200 -38 400 0 v30 q-200 -34 -400 0z" fill="#9a5a5a"/>
<path d="M0 366 q200 -38 400 0 v40 H0z" fill="#7a4a4a"/>
</g>
<g opacity="0.7" fill="#ffe1a8">
<path d="M0 244 q200 -28 400 0" fill="none" stroke="#ffe1a8" stroke-width="2"/>
<path d="M0 280 q200 -30 400 0" fill="none" stroke="#ffe1a8" stroke-width="2"/>
<path d="M0 316 q200 -32 400 0" fill="none" stroke="#ffd9a0" stroke-width="2"/>
</g>
<g fill="#fff4c2"><circle cx="60" cy="300" r="3"/><circle cx="160" cy="330" r="3"/><circle cx="300" cy="310" r="3"/><circle cx="360" cy="350" r="3"/></g>
<!-- Mon-chan -->
<g transform="translate(40 180) scale(0.92)">
<path d="M70 64 l-10 -40 38 22z" fill="url(#fur)"/><path d="M170 64 l10 -40 -38 22z" fill="url(#fur)"/>
<path d="M73 56 l-4 -22 18 12z" fill="#f0b0a6"/><path d="M167 56 l4 -22 -18 12z" fill="#f0b0a6"/>
<ellipse cx="120" cy="84" rx="53" ry="47" fill="url(#fur)"/>
<path d="M120 44 q-10 22 -2 34 q-44 0 -44 30 q0 27 46 27 q46 0 46 -27 q0 -30 -44 -30 q8 -12 -2 -34z" fill="#f4ebda"/>
<ellipse cx="84" cy="100" rx="9" ry="6" fill="#f0b0a6"/><ellipse cx="156" cy="100" rx="9" ry="6" fill="#f0b0a6"/>
<ellipse cx="100" cy="84" rx="6.5" ry="8.5" fill="#2b2420"/><ellipse cx="140" cy="84" rx="6.5" ry="8.5" fill="#2b2420"/>
<circle cx="102" cy="81" r="2.2" fill="#fff"/><circle cx="142" cy="81" r="2.2" fill="#fff"/>
<path d="M113 99 h14 l-7 8z" fill="#2f2925"/>
<path d="M114 110 q6 14 14 0 q-2 8 -7 8 q-5 0 -7 -8z" fill="#ef8a86"/>
<path d="M86 149 q34 24 68 0 l8 18 q-42 28 -84 0z" fill="#76823f"/>
<path d="M120 150 l-14 30 11 -5 9 9 8 -32z" fill="#6a7637"/>
</g>
<!-- Cinnamon -->
<g transform="translate(215 220) scale(0.6)">
<path d="M150 205 q70 -10 60 -90 q-8 -56 -54 -52 q34 6 38 50 q6 56 -52 70z" fill="url(#tl)"/>
<path d="M82 205 q-12 -78 42 -82 q54 4 42 82 z" fill="url(#sq)"/>
<path d="M104 205 q-12 -60 20 -64 q32 4 20 64 z" fill="#e9d8bd"/>
<path d="M92 56 q-6 -28 12 -24 q8 4 6 22z" fill="#7d6242"/><path d="M152 56 q6 -28 -12 -24 q-8 4 -6 22z" fill="#7d6242"/>
<ellipse cx="122" cy="86" rx="42" ry="40" fill="url(#sq)"/>
<path d="M122 72 q-30 0 -30 24 q0 20 30 20 q30 0 30 -20 q0 -24 -30 -24z" fill="#e9d8bd"/>
<ellipse cx="108" cy="84" rx="6" ry="7.5" fill="#241c16"/><ellipse cx="136" cy="84" rx="6" ry="7.5" fill="#241c16"/>
<circle cx="110" cy="81" r="2" fill="#fff"/><circle cx="138" cy="81" r="2" fill="#fff"/>
<path d="M117 96 h10 l-5 6z" fill="#3a2c24"/>
<ellipse cx="122" cy="150" rx="11" ry="13" fill="#e7c489"/>
<path d="M111 146 q11 -10 22 0 q-2 -8 -11 -8 q-9 0 -11 8z" fill="#7a5a34"/>
</g>
</svg>
